<svg width="190" height="80" viewBox="0 0 190 80" fill="none" xmlns="http://www.w3.org/2000/svg">
<rect width="190" height="80" rx="8" fill="#094B72"/>
<path d="M42.8 47.192C43.504 47.192 44.1867 47.0747 44.848 46.84C45.5093 46.5947 46.1013 46.2373 46.624 45.768C47.1573 45.288 47.5787 44.7013 47.888 44.008C48.1973 43.304 48.352 42.488 48.352 41.56V40.36H42.752V42.2H46.176V42.248C46.176 42.856 46.0213 43.384 45.712 43.832C45.4027 44.2693 44.992 44.6107 44.48 44.856C43.968 45.0907 43.408 45.208 42.8 45.208C42.0533 45.208 41.392 45.032 40.816 44.68C40.24 44.328 39.7867 43.8427 39.456 43.224C39.136 42.5947 38.976 41.864 38.976 41.032C38.976 40.2 39.136 39.4747 39.456 38.856C39.776 38.2267 40.2187 37.7413 40.784 37.4C41.3493 37.048 42.0053 36.872 42.752 36.872C43.5093 36.872 44.1547 37.064 44.688 37.448C45.2213 37.832 45.6053 38.3333 45.84 38.952L47.776 38.024C47.5733 37.4587 47.2373 36.9413 46.768 36.472C46.2987 35.992 45.7227 35.608 45.04 35.32C44.368 35.032 43.6053 34.888 42.752 34.888C41.8987 34.888 41.1093 35.0427 40.384 35.352C39.6587 35.6507 39.0293 36.0773 38.496 36.632C37.9627 37.176 37.5467 37.8267 37.248 38.584C36.9493 39.3307 36.8 40.1467 36.8 41.032C36.8 41.9173 36.9493 42.7387 37.248 43.496C37.5573 44.2427 37.984 44.8933 38.528 45.448C39.072 46.0027 39.7067 46.4347 40.432 46.744C41.1573 47.0427 41.9467 47.192 42.8 47.192ZM51.3539 47H59.2739V45.08H53.5299V41.976H58.9539V40.056H53.5299V37H59.2739V35.08H51.3539V47ZM64.2615 47H66.4535V37H69.4935V35.08H61.1735V37H64.2615V47ZM80.4811 47.192C81.3025 47.192 82.0225 47.0427 82.6411 46.744C83.2598 46.4453 83.7451 46.0347 84.0971 45.512C84.4491 44.9893 84.6251 44.3867 84.6251 43.704C84.6251 42.1147 83.6758 41.016 81.7771 40.408L79.5851 39.72C79.1585 39.5813 78.8331 39.3893 78.6091 39.144C78.3958 38.888 78.2891 38.5947 78.2891 38.264C78.2891 37.8267 78.4545 37.4747 78.7851 37.208C79.1265 36.9307 79.5745 36.792 80.1291 36.792C80.7478 36.792 81.2918 36.9573 81.7611 37.288C82.2305 37.608 82.5825 38.0667 82.8171 38.664L84.6091 37.864C84.2891 36.968 83.7291 36.248 82.9291 35.704C82.1398 35.16 81.2065 34.888 80.1291 34.888C79.3505 34.888 78.6571 35.0373 78.0491 35.336C77.4518 35.624 76.9825 36.0293 76.6411 36.552C76.3105 37.0747 76.1451 37.6773 76.1451 38.36C76.1451 39.1387 76.3798 39.816 76.8491 40.392C77.3185 40.9573 78.0171 41.3893 78.9451 41.688L81.2331 42.424C81.6491 42.5627 81.9585 42.744 82.1611 42.968C82.3745 43.192 82.4811 43.48 82.4811 43.832C82.4811 44.2693 82.3051 44.6213 81.9531 44.888C81.6118 45.1547 81.1585 45.288 80.5931 45.288C79.9105 45.288 79.2971 45.096 78.7531 44.712C78.2091 44.3173 77.7931 43.7787 77.5051 43.096L75.6971 43.88C75.9105 44.5413 76.2465 45.1227 76.7051 45.624C77.1745 46.1147 77.7291 46.4987 78.3691 46.776C79.0198 47.0533 79.7238 47.192 80.4811 47.192ZM89.9765 47H92.1685V37H95.2085V35.08H86.8885V37H89.9765V47ZM96.0435 47H98.3955L99.2595 44.44H103.868L104.716 47H107.084L102.972 35.08H100.156L96.0435 47ZM99.8835 42.52L101.564 37.496L103.244 42.52H99.8835ZM109.69 47H111.866V42.6H113.914L116.378 47H118.842L116.106 42.216C116.767 41.9387 117.29 41.512 117.674 40.936C118.069 40.36 118.266 39.6613 118.266 38.84C118.266 38.0293 118.09 37.3467 117.738 36.792C117.386 36.2373 116.895 35.816 116.266 35.528C115.647 35.2293 114.933 35.08 114.122 35.08H109.69V47ZM111.866 40.68V37H114.154C114.741 37 115.21 37.1653 115.562 37.496C115.914 37.8267 116.09 38.2747 116.09 38.84C116.09 39.3947 115.914 39.8427 115.562 40.184C115.21 40.5147 114.741 40.68 114.154 40.68H111.866ZM123.348 47H125.54V37H128.58V35.08H120.26V37H123.348V47ZM131.188 47H139.108V45.08H133.364V41.976H138.788V40.056H133.364V37H139.108V35.08H131.188V47ZM141.983 47H145.871C147.13 47 148.223 46.744 149.151 46.232C150.09 45.72 150.815 45.016 151.327 44.12C151.839 43.224 152.095 42.1947 152.095 41.032C152.095 39.8587 151.839 38.8293 151.327 37.944C150.815 37.048 150.095 36.3493 149.167 35.848C148.239 35.336 147.141 35.08 145.871 35.08H141.983V47ZM144.159 45.08V37H145.919C146.73 37 147.429 37.1653 148.015 37.496C148.613 37.8267 149.077 38.296 149.407 38.904C149.738 39.5013 149.903 40.2107 149.903 41.032C149.903 41.8533 149.738 42.568 149.407 43.176C149.087 43.784 148.629 44.2533 148.031 44.584C147.434 44.9147 146.73 45.08 145.919 45.08H144.159Z" fill="#F9F8F9"/>
</svg>
